<svg width="15" height="15" viewBox="0 0 15 15" fill="none" xmlns="http://www.w3.org/2000/svg">
<path d="M11.25 6.5625V11.9531C11.25 12.107 11.2197 12.2594 11.1608 12.4016C11.1019 12.5438 11.0156 12.6729 10.9068 12.7818C10.7979 12.8906 10.6688 12.9769 10.5266 13.0358C10.3844 13.0947 10.232 13.125 10.0781 13.125H3.04688C2.73607 13.125 2.438 13.0015 2.21823 12.7818C1.99847 12.562 1.875 12.2639 1.875 11.9531V4.92188C1.875 4.61107 1.99847 4.313 2.21823 4.09323C2.438 3.87347 2.73607 3.75 3.04688 3.75H7.95352M9.84375 1.875H13.125V5.15625M6.5625 8.4375L12.8906 2.10938"  stroke-width="1.5" stroke-linecap="round" stroke-linejoin="round"/>
</svg>
